<?xml version="1.0" encoding="UTF-8" standalone="no"?>
<!-- Generator: Adobe Illustrator 16.0.0, SVG Export Plug-In . SVG Version: 6.00 Build 0)  -->

<svg
   xmlns:dc="http://purl.org/dc/elements/1.1/"
   xmlns:cc="http://creativecommons.org/ns#"
   xmlns:rdf="http://www.w3.org/1999/02/22-rdf-syntax-ns#"
   xmlns:svg="http://www.w3.org/2000/svg"
   xmlns="http://www.w3.org/2000/svg"
   xmlns:sodipodi="http://sodipodi.sourceforge.net/DTD/sodipodi-0.dtd"
   xmlns:inkscape="http://www.inkscape.org/namespaces/inkscape"
   version="1.1"
   id="Layer_1"
   x="0px"
   y="0px"
   width="99.999947"
   height="99.99984"
   viewBox="0 0 99.999942 99.999838"
   enable-background="new 0 0 595.28 841.89"
   xml:space="preserve"
   inkscape:version="0.48.5 r10040"
   sodipodi:docname="blank.svg"><metadata
   id="metadata3029"><rdf:RDF><cc:Work
       rdf:about=""><dc:format>image/svg+xml</dc:format><dc:type
         rdf:resource="http://purl.org/dc/dcmitype/StillImage" /><dc:title></dc:title></cc:Work></rdf:RDF></metadata><defs
   id="defs3027" /><sodipodi:namedview
   pagecolor="#ffffff"
   bordercolor="#666666"
   borderopacity="1"
   objecttolerance="10"
   gridtolerance="10"
   guidetolerance="10"
   inkscape:pageopacity="0"
   inkscape:pageshadow="2"
   inkscape:window-width="1920"
   inkscape:window-height="1063"
   id="namedview3025"
   showgrid="false"
   fit-margin-top="0"
   fit-margin-left="0"
   fit-margin-right="0"
   fit-margin-bottom="0"
   inkscape:zoom="0.28032165"
   inkscape:cx="297.64001"
   inkscape:cy="420.94484"
   inkscape:window-x="-4"
   inkscape:window-y="-4"
   inkscape:window-maximized="1"
   inkscape:current-layer="Layer_1" />
<path
   clip-rule="evenodd"
   d="M 0.00459259,49.969353 C 0.00478002,40.100383 -0.00834026,30.231413 0.00890354,20.362443 0.0223987,12.788663 3.3043448,6.9745932 9.6504403,2.9159432 12.772131,0.91950323 16.257629,0.02493323 19.966734,0.02362323 c 9.494589,-0.003 18.989366,-0.008 28.483956,-0.0107 1.874139,-5.7e-4 3.749215,0.0435 5.621668,-0.0116 0.778595,-0.0231 0.934164,0.25452 0.92573,0.96879 -0.03149,2.68539997 -0.02474,5.37192997 0.02005,8.05732997 0.01256,0.76394 -0.204676,1.0135898 -0.997142,1.0115298 -11.119068,-0.0262 -22.238137,-0.0154 -33.357393,-0.027 -2.339533,-0.002 -4.527435,0.48074 -6.44787,1.87517 -2.837543,2.06053 -4.201678,4.90112 -4.206552,8.36321 -0.019305,13.55465 1.88e-4,27.10931 0.0015,40.66396 5.62e-4,6.02772 0.0045,12.05564 -0.017994,18.08318 -0.00843,2.29219 0.324446,4.47867 1.639474,6.42619 2.02446,2.99727 4.870813,4.52665 8.45996,4.5377 11.025915,0.0345 22.051829,0.0157 33.077743,0.0161 8.839325,3.8e-4 17.678838,0.012 26.518162,-0.009 4.021556,-0.01 7.08027,-1.76103 9.078489,-5.26941 0.902114,-1.58466 1.197883,-3.33107 1.197508,-5.1399 -0.0021,-11.1502 0.01143,-22.30039 -0.01949,-33.45078 -0.0026,-0.9045 0.235977,-1.16183 1.138653,-1.14103 2.653484,0.0609 5.309593,0.0508 7.963827,0.0111 0.746732,-0.0113 0.947285,0.21591 0.945598,0.95529 -0.02137,10.77498 -0.05079,21.54996 0.0067,32.32456 0.0223,4.2024 -0.542242,8.22976 -2.797807,11.8564 -4.049483,6.51035 -9.936931,9.84555 -17.606863,9.86541 -13.773115,0.0358 -27.546605,3.8e-4 -41.319908,0 -5.840589,-3.7e-4 -11.680991,0.0142 -17.521393,0.0197 -7.848368,0.007 -13.9097533,-3.2576 -18.0289611,-9.96193 -1.85389667,-3.01714 -2.71271317,-6.35703 -2.71646182,-9.89802 -0.01049623,-10.05677 -0.00356122,-20.11372 -0.00337379,-30.17068 z"
   id="path3009"
   inkscape:connector-curvature="0"
   style="fill-rule:evenodd;fill:#f9f9f9" />
<path
   clip-rule="evenodd"
   d="m 99.978743,34.987093 c -3.393094,0 -6.636054,0 -9.98154,0 0,-5.85717 0,-11.68229 0,-17.50704 -0.08041,-0.0467 -0.16063,-0.0933 -0.241038,-0.13981 -8.433721,8.42693 -16.867629,16.85405 -25.262738,25.24238 -2.380957,-2.37485 -4.709621,-4.6974 -7.087579,-7.06906 8.392673,-8.37707 16.827518,-16.79632 25.262363,-25.21539 -0.0283,-0.08 -0.05698,-0.16006 -0.08528,-0.24027 -5.834967,0 -11.669933,0 -17.55813,0 0,-3.3889898 0,-6.6261698 0,-9.97767977 0.322946,-0.024 0.649641,-0.0693 0.976336,-0.0693 11.02629,5.7e-4 22.052391,0.0116 33.078493,-0.004 0.696313,-9.3e-4 0.907362,0.19192 0.905487,0.89533 -0.02155,8.55755997 -0.01481,17.11493977 -0.01406,25.67250977 1.87e-4,2.46743 0.0051,4.93467 0.0077,7.4021 3.75e-4,0.30494 0,0.61026 0,1.01059 z"
   id="path3011"
   inkscape:connector-curvature="0"
   style="fill-rule:evenodd;fill:#f9f9f9" />
<g
   id="g3013"
   transform="matrix(0.18743267,0,0,0.18742347,-5.11738,-24.009507)">
</g>
<g
   id="g3015"
   transform="matrix(0.18743267,0,0,0.18742347,-5.11738,-24.009507)">
</g>
<g
   id="g3017"
   transform="matrix(0.18743267,0,0,0.18742347,-5.11738,-24.009507)">
</g>
<g
   id="g3019"
   transform="matrix(0.18743267,0,0,0.18742347,-5.11738,-24.009507)">
</g>
<g
   id="g3021"
   transform="matrix(0.18743267,0,0,0.18742347,-5.11738,-24.009507)">
</g>
<g
   id="g3023"
   transform="matrix(0.18743267,0,0,0.18742347,-5.11738,-24.009507)">
</g>
</svg>