<?xml version="1.0" encoding="UTF-8" standalone="no"?>
<!-- Generator: Adobe Illustrator 16.0.0, SVG Export Plug-In . SVG Version: 6.00 Build 0)  -->

<svg
   xmlns:dc="http://purl.org/dc/elements/1.1/"
   xmlns:cc="http://creativecommons.org/ns#"
   xmlns:rdf="http://www.w3.org/1999/02/22-rdf-syntax-ns#"
   xmlns:svg="http://www.w3.org/2000/svg"
   xmlns="http://www.w3.org/2000/svg"
   xmlns:sodipodi="http://sodipodi.sourceforge.net/DTD/sodipodi-0.dtd"
   xmlns:inkscape="http://www.inkscape.org/namespaces/inkscape"
   version="1.1"
   id="Layer_1"
   x="0px"
   y="0px"
   width="100"
   height="100"
   viewBox="0 0 99.999995 99.999998"
   enable-background="new 0 0 595.28 841.89"
   xml:space="preserve"
   inkscape:version="0.48.5 r10040"
   sodipodi:docname="download.svg"><metadata
   id="metadata3105"><rdf:RDF><cc:Work
       rdf:about=""><dc:format>image/svg+xml</dc:format><dc:type
         rdf:resource="http://purl.org/dc/dcmitype/StillImage" /></cc:Work></rdf:RDF></metadata><defs
   id="defs3103" /><sodipodi:namedview
   pagecolor="#ffffff"
   bordercolor="#666666"
   borderopacity="1"
   objecttolerance="10"
   gridtolerance="10"
   guidetolerance="10"
   inkscape:pageopacity="0"
   inkscape:pageshadow="2"
   inkscape:window-width="1920"
   inkscape:window-height="1063"
   id="namedview3101"
   showgrid="false"
   inkscape:zoom="0.28032165"
   inkscape:cx="297.64001"
   inkscape:cy="420.94501"
   inkscape:window-x="-4"
   inkscape:window-y="-4"
   inkscape:window-maximized="1"
   inkscape:current-layer="Layer_1" />
<path
   clip-rule="evenodd"
   d="m 90.37013,90.456998 c 0,-6.552 0,-12.813 0,-19.363 3.418909,0 6.39035,0 9.629859,0 0,9.666 0,19.096 0,28.906 -33.25085,0 -66.446024,0 -99.9999984696599,0 0,-9.523 0,-19.072 0,-28.908 2.9724712696599,0 5.8274047696599,0 9.3421999696599,0 0,6.266 0,12.648 0,19.365 27.1677495,0 53.6890395,0 81.0279395,0 z"
   id="path3085"
   inkscape:connector-curvature="0"
   style="fill-rule:evenodd" />
<path
   clip-rule="evenodd"
   d="m 50.0402,81.129998 c -9.861841,-9.547 -19.549437,-18.925 -29.450458,-28.51 2.049696,-1.804 4.192185,-3.69 6.764615,-5.954 5.17476,5.39 10.501082,10.938 15.828435,16.486 0.545417,-0.293 1.091866,-0.588 1.636252,-0.882 0,-12.983 0,-25.966 0,-39.198 3.566346,0 6.424373,0 9.95051,0 0,12.974 0,26.001 0,39.028 0.395917,0.177 0.790803,0.354 1.18672,0.53 5.172698,-5.627 10.345396,-11.254 15.685122,-17.063 3.326116,3.282 5.433549,5.363 7.373956,7.279 -9.624704,9.395 -19.276214,18.817 -28.975152,28.284 z"
   id="path3087"
   inkscape:connector-curvature="0"
   style="fill-rule:evenodd" />
<g
   id="g3089"
   transform="translate(0,-741.89)">
</g>
<g
   id="g3091"
   transform="translate(0,-741.89)">
</g>
<g
   id="g3093"
   transform="translate(0,-741.89)">
</g>
<g
   id="g3095"
   transform="translate(0,-741.89)">
</g>
<g
   id="g3097"
   transform="translate(0,-741.89)">
</g>
<g
   id="g3099"
   transform="translate(0,-741.89)">
</g>
</svg>